<svg width="256" height="256" viewBox="0 0 256 256" fill="none" xmlns="http://www.w3.org/2000/svg">
  <rect width="256" height="256" rx="56" fill="#0B0F1A"/>
  <path d="M128 36L206 80V176L128 220L50 176V80L128 36Z" fill="#131826" stroke="#2A3350" stroke-width="8" stroke-linejoin="round"/>
  <path d="M128 58L184 90V160L128 192L72 160V90L128 58Z" fill="#182033"/>
  <path d="M128 75L165 96V139L128 160L91 139V96L128 75Z" fill="#F4B860"/>
  <path d="M128 85L155 100V132L128 147L101 132V100L128 85Z" fill="#25314D"/>
  <path d="M128 64L136 78H120L128 64Z" fill="#6AB0FF"/>
  <path d="M124 47H132V71H124V47Z" fill="#6AB0FF"/>
  <path d="M98 105L87 125L98 146H113L123 125L113 105H98Z" fill="#6AB0FF"/>
  <path d="M143 105L133 125L143 146H158L169 125L158 105H143Z" fill="#6AB0FF"/>
  <path d="M116 121L128 127L140 121V131L128 138L116 131V121Z" fill="#F4B860"/>
  <path d="M103 153L88 179L103 188L121 160L103 153Z" fill="#9AA6C2"/>
  <path d="M153 153L135 160L153 188L168 179L153 153Z" fill="#9AA6C2"/>
  <path d="M86 92L71 124L84 131L101 99L86 92Z" fill="#9AA6C2"/>
  <path d="M170 92L155 99L172 131L185 124L170 92Z" fill="#9AA6C2"/>
  <path d="M108 176L120 196L128 191L118 169L108 176Z" fill="#6E7C99"/>
  <path d="M148 176L138 169L128 191L136 196L148 176Z" fill="#6E7C99"/>
</svg>
